<?xml version="1.0" encoding="UTF-8"?>
<svg id="Layer_2" data-name="Layer 2" xmlns="http://www.w3.org/2000/svg" viewBox="0 0 578.26 494.2">
  <defs>
    <style>
      .cls-1 {
        fill: #fff;
      }
    </style>
  </defs>
  <g id="Layer_1-2" data-name="Layer 1">
    <path class="cls-1" d="M311.13,180.9c13.92-49.8,52.17-81.83,99.21-99.89,33.26-12.77,68.47-17.9,104.05-15.39,21.85,1.54,42.93,4.66,63.87,13.23-42.75,19.62-61.56,52.66-85.37,89.71-5.3,8.25-10.52,15.81-16.96,23.17-27.04,30.91-62.37,41.02-102.68,40.47l-28.02-.38c-8.8-.12-16.2,4.15-21.11,11.28-17.94,25.99-19.87,66.89-20,97.94-.17,41.38,2.78,86.9,13.01,126.47-12.02,5.57-19.9,15.35-26.64,26.7-6.6-11.13-14.65-20.53-26.27-26.67,4.32-18.09,7.07-35.69,9.02-54.56,6.86-59.41,10.12-159.6-19.36-212.54-7.26-13.03-17.98-13.74-31.67-13.41-34.26.82-70.99-6.77-97.17-29.77-12.96-11.39-23.57-24.09-32.11-39.02l-22.19-38.78C51.9,46.48,33.81,23.9,0,4.5c73.71-12.57,159.21.43,217.31,48.27,39,32.11,50.24,75.99,50.42,126.09-13.85-25.45-28.98-49.24-47.69-71.65C180.47,59.82,124.37,25.38,62.03,18.05c7.23,3.16,14.24,4.44,21.93,7.24,43.45,15.81,82.87,41.46,114.48,75.78-27.66-18.83-56.11-35.1-89.61-41.01l41.13,19.32c39.07,20.44,71.91,49.33,97.96,84.86,28.43,38.77,40.76,71.2,44.75,120.11,4.52-21.85,12.79-41.76,25.47-60.37,26.84-39.43,65.19-68.54,109.65-85.56,18.29-7,35.72-12.08,55.12-16.44-17.13.37-33.34,3.4-49.77,8.02-19.29,5.43-35.84,14.79-53.87,23.89,38.94-34.72,87.49-60.67,138.12-68.63-26.58-.04-51.57,6.23-76.01,15.89-22.73,8.98-42.83,21.02-61.72,36.32-31.31,25.35-59.15,57.12-76.42,93.87.68-17.72,3.29-33.93,7.91-50.45Z"/>
  </g>
</svg>